<?xml version="1.0" encoding="UTF-8" standalone="no"?>
<svg
   xmlns:dc="http://purl.org/dc/elements/1.1/"
   xmlns:cc="http://creativecommons.org/ns#"
   xmlns:rdf="http://www.w3.org/1999/02/22-rdf-syntax-ns#"
   xmlns:svg="http://www.w3.org/2000/svg"
   xmlns="http://www.w3.org/2000/svg"
   xmlns:sodipodi="http://sodipodi.sourceforge.net/DTD/sodipodi-0.dtd"
   xmlns:inkscape="http://www.inkscape.org/namespaces/inkscape"
   width="244px"
   height="397px"
   viewBox="0 0 244 397"
   version="1.1"
   id="svg43"
   sodipodi:docname="home-hero-app.svg"
   inkscape:version="0.92.2 (5c3e80d, 2017-08-06)">
  <metadata
     id="metadata47">
    <rdf:RDF>
      <cc:Work
         rdf:about="">
        <dc:format>image/svg+xml</dc:format>
        <dc:type
           rdf:resource="http://purl.org/dc/dcmitype/StillImage" />
      </cc:Work>
    </rdf:RDF>
  </metadata>
  <sodipodi:namedview
     pagecolor="#ffffff"
     bordercolor="#666666"
     borderopacity="1"
     objecttolerance="10"
     gridtolerance="10"
     guidetolerance="10"
     inkscape:pageopacity="0"
     inkscape:pageshadow="2"
     inkscape:window-width="1530"
     inkscape:window-height="950"
     id="namedview45"
     showgrid="false"
     inkscape:zoom="0.59445844"
     inkscape:cx="-85.752119"
     inkscape:cy="198.5"
     inkscape:window-x="0"
     inkscape:window-y="0"
     inkscape:window-maximized="0"
     inkscape:current-layer="svg43" />
  <defs
     id="defs12">
    <rect
       id="path-1"
       x="24"
       y="408"
       width="228"
       height="34"
       rx="3" />
    <filter
       x="-5.7%"
       y="-32.4%"
       width="111.4%"
       height="176.5%"
       filterUnits="objectBoundingBox"
       id="filter-2">
      <feOffset
         dx="0"
         dy="2"
         in="SourceAlpha"
         result="shadowOffsetOuter1"
         id="feOffset3" />
      <feGaussianBlur
         stdDeviation="4"
         in="shadowOffsetOuter1"
         result="shadowBlurOuter1"
         id="feGaussianBlur5" />
      <feComposite
         in="shadowBlurOuter1"
         in2="SourceAlpha"
         operator="out"
         result="shadowBlurOuter1"
         id="feComposite7" />
      <feColorMatrix
         values="0 0 0 0 0   0 0 0 0 0   0 0 0 0 0  0 0 0 0.15 0"
         type="matrix"
         in="shadowBlurOuter1"
         id="feColorMatrix9" />
    </filter>
  </defs>
  <g
     style="fill:#000000;stroke:none"
     transform="matrix(0.06547335,0,0,-0.07731416,-13.267567,354.03541)"
     id="g3737">
    <path
       inkscape:connector-curvature="0"
       d="m 1705,3984 c -938,-42 -935,-41 -935,-60 0,-8 3,-14 8,-14 4,0 191,9 417,20 438,22 916,30 978,17 20,-4 37,-11 37,-16 0,-4 -25,-25 -56,-46 -30,-21 -62,-47 -70,-59 -18,-26 -18,-67 1,-92 8,-10 14,-21 15,-24 0,-3 -66,-6 -148,-7 -452,-8 -884,-134 -1162,-341 -69,-51 -177,-161 -217,-220 -73,-110 -110,-256 -93,-372 7,-51 5,-58 -22,-98 -42,-61 -85,-157 -104,-232 -21,-84 -21,-226 0,-310 36,-142 129,-291 234,-375 77,-62 215,-130 304,-150 71,-16 74,-18 118,-75 25,-33 290,-354 589,-715 523,-632 544,-656 561,-638 15,15 654,807 1103,1366 79,98 131,154 155,166 68,35 160,111 210,174 174,218 204,492 82,737 -31,62 -112,173 -141,193 -13,10 -22,34 -29,85 -48,339 -417,622 -970,746 -133,29 -326,56 -408,56 -42,0 -53,3 -45,11 9,9 8,18 -4,35 -24,38 -9,66 62,117 75,54 83,81 30,106 -30,14 -316,23 -500,15 z m 640,-330 c 576,-71 1034,-336 1144,-662 20,-58 28,-122 15,-122 -3,0 -34,17 -69,39 -36,21 -104,51 -152,67 -81,27 -100,29 -233,29 -137,0 -150,-2 -233,-31 -123,-44 -190,-87 -282,-179 -140,-140 -195,-264 -203,-457 -4,-98 -2,-118 10,-118 11,0 14,20 15,98 1,153 40,268 132,392 85,115 244,219 391,256 86,22 264,22 350,0 243,-61 444,-255 506,-487 22,-83 22,-243 1,-326 -46,-176 -175,-336 -342,-425 -51,-26 -85,-56 -77,-66 1,-1 -118,-152 -265,-335 C 2905,1144 2643,818 2470,603 2297,387 2150,212 2143,213 c -6,1 -252,295 -547,652 -294,358 -557,676 -583,708 -42,50 -52,57 -84,57 -44,0 -131,29 -207,70 -165,88 -291,245 -338,421 -22,85 -22,243 0,328 62,232 263,426 506,487 87,22 264,22 350,0 143,-36 291,-129 375,-234 98,-124 145,-252 149,-406 1,-59 6,-91 14,-94 18,-6 15,158 -3,238 -9,36 -34,103 -57,150 -34,68 -60,102 -128,170 -97,97 -163,139 -287,184 -84,29 -95,31 -238,31 -143,0 -154,-2 -238,-31 -105,-38 -182,-82 -254,-148 -29,-27 -57,-45 -61,-41 -4,3 -6,43 -5,88 1,101 28,186 87,276 262,403 997,627 1751,535 z"
       id="path3729" />
    <path
       inkscape:connector-curvature="0"
       d="m 1620,1193 c -95,-49 -83,-183 20,-214 53,-16 107,10 134,65 17,36 18,43 5,79 -25,71 -96,102 -159,70 z"
       id="path3731" />
    <path
       inkscape:connector-curvature="0"
       d="m 2580,1193 c -95,-49 -83,-183 20,-214 53,-16 107,10 134,65 17,36 18,43 5,79 -25,71 -96,102 -159,70 z"
       id="path3733" />
    <path
       inkscape:connector-curvature="0"
       d="m 2040,614 c 0,-8 100,-184 105,-184 5,0 105,176 105,184 0,3 -47,6 -105,6 -58,0 -105,-3 -105,-6 z"
       id="path3735" />
  </g>
  <path
     style="fill:#ffffff;stroke-width:0.32257712"
     d="m 124.93843,337.74005 c -2.62002,-3.22656 -5.7562,-7.53425 -14.10004,-19.36703 -16.411365,-23.27373 -46.454599,-66.19798 -53.116897,-75.89074 -2.849103,-4.14507 -5.914979,-8.42019 -6.813045,-9.50027 -1.448181,-1.74168 -1.867886,-2.03285 -3.710808,-2.57439 -6.660456,-1.95715 -13.69121,-5.60673 -19.152836,-9.942 -5.766178,-4.57701 -10.737982,-11.51027 -14.250264,-19.87221 -3.849575,-9.16497 -4.929477,-15.01758 -4.656907,-25.23849 0.08498,-3.18647 0.362696,-6.79452 0.643084,-8.35474 1.016898,-5.65856 3.757676,-13.3733 6.632309,-18.66863 2.230274,-4.10835 2.245987,-4.18778 1.831388,-9.25696 -0.275835,-3.37256 -0.278523,-5.14861 -0.01167,-7.71176 0.856655,-8.22827 3.324139,-15.68493 7.203021,-21.76736 2.285349,-3.58363 8.442069,-10.963603 11.668996,-13.987443 C 50.140393,83.392763 69.836393,74.281224 92.021913,70.202874 99.06452,68.90824 105.24089,68.295506 115.15339,67.90811 c 4.88548,-0.190935 8.94803,-0.424326 9.02791,-0.518647 0.15077,-0.178038 -0.12328,-0.894828 -1.13674,-2.973265 -0.65525,-1.343798 -0.76791,-3.277098 -0.27984,-4.802497 0.4592,-1.435155 1.50856,-2.621969 5.22289,-5.906989 1.82173,-1.611178 3.39558,-3.088643 3.49744,-3.283256 0.32425,-0.619543 -1.12333,-1.406318 -3.25759,-1.770539 -2.65388,-0.452897 -19.37296,-0.462107 -32.346503,-0.01782 -12.294136,0.42102 -20.659307,0.824127 -40.363462,1.945063 -18.147189,1.032363 -18.264309,1.034456 -18.264309,0.326314 0,-1.402688 0.385759,-1.437563 41.262074,-3.730117 28.02331,-1.571692 48.99849,-1.464426 52.51085,0.268539 3.16213,1.560163 2.73521,3.56723 -1.57479,7.403493 -3.64584,3.245116 -5.22123,5.412012 -5.22123,7.181613 0,0.444895 0.33623,1.554746 0.74718,2.466332 0.62683,1.39046 0.68842,1.768561 0.3823,2.347374 -0.20069,0.379475 -0.27592,0.795012 -0.16718,0.923421 0.10875,0.128403 2.241,0.361662 4.73835,0.518339 12.62998,0.792391 27.70738,4.235947 39.83811,9.098708 15.3906,6.169509 26.97649,14.083888 35.64957,24.352414 7.3414,8.69186 11.29044,17.25236 12.91951,28.00609 0.34691,2.29002 0.76177,4.57725 0.92192,5.08275 0.16015,0.5055 1.07026,1.86553 2.02248,3.02229 3.34858,4.06788 7.44273,11.33798 9.3532,16.60874 2.59404,7.15666 3.56258,12.86447 3.54619,20.89846 -0.0172,8.45764 -1.13612,14.34906 -4.16066,21.908 -3.80266,9.50367 -10.5473,18.21294 -18.21747,23.52403 -4.11296,2.84795 -3.12173,1.48274 -34.58594,47.63489 -45.73162,67.07976 -49.03765,71.85958 -49.70275,71.85958 -0.28206,0 -1.44147,-1.14362 -2.57647,-2.54137 z m 10.41243,-11.12947 c 2.78748,-3.95228 9.21351,-13.25897 14.28006,-20.68154 49.45926,-72.45857 54.45168,-79.86025 54.45168,-80.72926 0,-0.77075 2.02338,-2.60123 5.49171,-4.96811 10.8156,-7.38088 18.45433,-18.4781 21.62905,-31.42174 1.43924,-5.86796 1.74492,-17.02794 0.66138,-24.14632 -1.13681,-7.46827 -4.92236,-16.19505 -9.9517,-22.94148 -6.64585,-8.91486 -16.39327,-15.60611 -25.67985,-17.62826 -3.43807,-0.74865 -14.87353,-0.83317 -18.41358,-0.13612 -9.20051,1.81164 -20.76543,9.75371 -26.8454,18.43575 -3.64952,5.21144 -6.25596,10.63258 -7.89754,16.42618 -1.37573,4.85537 -1.91504,8.89647 -2.18334,16.35992 -0.21462,5.97024 -0.49541,7.64968 -1.14791,6.8659 -0.39034,-0.46886 -0.12937,-11.74502 0.36371,-15.7153 0.94167,-7.58251 3.08557,-13.97683 6.7271,-20.06407 2.19131,-3.66305 8.976,-11.86911 11.95887,-14.46423 4.13073,-3.59376 9.3164,-6.51368 15.47593,-8.71413 2.52667,-0.90265 3.01818,-0.95401 10.57391,-1.10502 9.28579,-0.18558 11.4179,0.0751 16.26629,1.98936 4.32174,1.70629 7.51748,3.40357 11.7109,6.21979 1.7863,1.19964 3.3559,2.10229 3.48798,2.00589 0.44332,-0.32353 0.24571,-4.02259 -0.36604,-6.85189 -1.76814,-8.17751 -5.62551,-15.38933 -12.34879,-23.08753 C 188.2359,84.671761 162.58601,73.333487 131.35447,70.325038 125.80819,69.790782 110.43911,69.792921 105.08329,70.328519 84.382703,72.399334 66.717659,77.798425 52.244079,86.478146 42.000303,92.621278 34.232759,99.6703 28.55724,107.97387 c -5.229189,7.65057 -7.73771,14.23138 -8.54308,22.41178 -0.3457,3.51137 -0.259719,10.22589 0.136943,10.6943 0.337583,0.39863 1.996335,-0.84392 4.348042,-3.25707 5.041152,-5.17285 10.669272,-8.9011 17.800478,-11.79162 l 3.710619,-1.50404 h 10.241307 c 11.636616,0 11.445304,-0.0345 18.456647,3.32684 6.369569,3.05364 10.391524,6.32237 16.146135,13.12227 5.260561,6.21611 7.521879,10.29221 10.182669,18.35454 1.43084,4.33553 2.00889,7.00977 2.40291,11.11637 0.34545,3.60057 0.35924,11.13699 0.0228,12.44398 l -0.22561,0.87634 -0.30163,-0.87634 c -0.16589,-0.48198 -0.45364,-3.63679 -0.63942,-7.01069 -0.4774,-8.66976 -1.52893,-13.90355 -4.04955,-20.15574 -2.503721,-6.21028 -6.142937,-12.00079 -10.134034,-16.12468 -6.717478,-6.94099 -15.459348,-11.94308 -23.361251,-13.3673 -3.97373,-0.71622 -15.564015,-0.4764 -18.842276,0.38987 -9.00221,2.3788 -18.248704,8.87677 -24.452471,17.18394 -4.911619,6.57692 -8.904199,15.53345 -10.018662,22.47481 -1.025184,6.38529 -0.871509,17.98021 0.312324,23.56514 2.696442,12.72088 10.683665,24.99478 20.831665,32.01181 4.468605,3.0899 11.898684,6.2518 14.690977,6.2518 1.65256,0 2.494859,0.42909 3.748736,1.90973 0.582674,0.68806 10.707323,15.09141 22.499217,32.00745 22.893178,32.84137 40.301965,57.60446 48.462215,68.935 l 5.02772,6.98098 1.63604,-2.0735 c 0.89983,-1.14042 3.91672,-5.30717 6.7042,-9.25945 z"
     id="path3747"
     inkscape:connector-curvature="0" />
  <path
     style="fill:#800000;stroke-width:0.32257712"
     d="m 93.442323,277.86918 c -2.014303,-0.94181 -3.791875,-3.28972 -4.418906,-5.83672 -0.808102,-3.28248 0.01169,-6.30797 2.374821,-8.76424 4.380015,-4.55271 10.371392,-1.86754 12.026312,5.38985 0.28328,1.24228 0.24341,1.74107 -0.26825,3.35592 -1.64198,5.18228 -5.796866,7.68666 -9.713977,5.85519 z"
     id="path3749"
     inkscape:connector-curvature="0" />
  <path
     style="fill:#800000;stroke-width:0.32257712"
     d="m 157.17845,278.28023 c -4.23532,-1.63753 -6.51187,-6.57148 -5.19397,-11.25687 0.60415,-2.1479 2.28133,-4.30509 4.10899,-5.28501 1.59384,-0.85456 4.12635,-0.86313 5.69956,-0.0192 2.38279,1.27809 4.58968,5.29626 4.58968,8.35657 0,2.31094 -1.9612,5.88728 -4.00352,7.30062 -1.40492,0.97223 -3.90173,1.40621 -5.20074,0.90396 z"
     id="path3751"
     inkscape:connector-curvature="0" />
  <path
     style="fill:#800000;stroke-width:0.32257712"
     d="m 124.59449,315.48111 c -3.38411,-6.93515 -4.05031,-8.47124 -3.80143,-8.76513 0.28055,-0.33128 12.51793,-0.34611 12.7979,-0.0155 0.31042,0.36656 -5.94818,13.60047 -6.43196,13.60047 -0.11692,0 -1.27096,-2.16892 -2.56451,-4.81985 z"
     id="path3753"
     inkscape:connector-curvature="0" />
</svg>
