<svg version="1" xmlns="http://www.w3.org/2000/svg" width="570.667" height="570.667" viewBox="0 0 428.000000 428.000000"><path d="M182.7 29.6c-.1.1-9.6.5-21.2.9-11.5.4-23.2.9-26 1-2.7.2-11.5.6-19.5 1s-16.7.9-19.5 1c-2.7.2-6.2.3-7.7.4-1.8.1-2.8.7-2.8 1.6 0 1.4 1.4 1.5 9.8 1.1 5.3-.3 15.6-.8 22.7-1.2 7.2-.3 15.5-.8 18.5-.9 14.4-1 45.6-1.8 64.5-1.9 20.7 0 28.5.6 28.5 2.4 0 .5-2.5 2.5-5.5 4.6-3.1 2-6.2 4.6-7 5.7-1.9 2.7-1.9 6.8 0 9.3.8 1 1.5 2.1 1.5 2.4 0 .3-4.4.6-9.7.6-11.1.1-29.4 1.2-31.4 1.8-.8.3-3.6.7-6.4 1-10.9 1.2-33.3 6.6-43.7 10.6-8.7 3.3-8.9 3.5-18.3 8-11 5.3-15 7.8-24 14.9C70.7 105.5 61.2 119 57.9 133c-1.1 5.1-1.5 16.8-.6 21.5.2 1.1-1.5 4.8-4 8.6-2.3 3.7-4.3 7.1-4.3 7.6 0 .4-.6 2-1.4 3.5-2.8 5.4-4.9 16.3-4.8 25.3.2 20.1 7.6 36.7 22.5 50.6 8.2 7.6 23.2 15.7 32.4 17.4 5.5 1 7.6 1.4 7.7 1.7.8 1.3 7.5 9.8 9.3 11.8 1.2 1.4 8.3 9.9 15.8 19 7.6 9.1 14.7 17.6 15.9 19 1.1 1.4 5 6.1 8.6 10.5 3.5 4.4 10.2 12.5 14.8 18 11.6 13.9 13.3 15.9 28.2 34 7.2 8.8 13.9 16.9 14.8 18 .9 1.1 3.7 4.4 6.1 7.3l4.4 5.3 2.1-2.3c1.2-1.3 7.7-9.3 14.5-17.8 6.9-8.5 15.2-18.9 18.6-23 3.3-4.1 15.3-19 26.5-33 11.3-14 20.7-25.7 21-26 .3-.3 3.2-3.9 6.5-8s10.2-12.7 15.3-19c5.2-6.3 9.9-12.2 10.5-13 6.2-8 9.4-11.2 14.9-14.3 7.7-4.5 16.2-12.3 21.5-19.7 19.1-26.7 16.3-62.6-6.8-87.2-3.2-3.3-4.6-5.7-4.7-8-1.8-24.7-21.6-47.3-55.6-63.4-15.2-7.2-41.5-14.9-57.1-16.8-2.2-.3-5.6-.7-7.5-1-5.5-.8-14.1-1.5-19-1.6-3.2 0-4.1-.3-3-1 1.2-.8 1.2-1.1-.3-2.8-2-2.2-2.2-5.2-.4-7.4.6-.8 3.8-3.4 7-5.7 7.5-5.5 7.6-8.7.2-10.6-2.6-.7-44.1-1.5-44.8-.9z"/></svg>